<?xml version="1.0" standalone="no"?>
<!DOCTYPE svg PUBLIC "-//W3C//DTD SVG 20010904//EN"
 "http://www.w3.org/TR/2001/REC-SVG-20010904/DTD/svg10.dtd">
<svg version="1.0" xmlns="http://www.w3.org/2000/svg"
 width="1200.000000pt" height="1200.000000pt" viewBox="0 0 1200.000000 1200.000000"
 preserveAspectRatio="xMidYMid meet">
<metadata>
Created by potrace 1.14, written by Peter Selinger 2001-2017
</metadata>
<g transform="translate(0.000000,1200.000000) scale(0.100000,-0.100000)"
fill="#000000" stroke="none">
<path d="M6694 11868 c-30 -14 -56 -77 -68 -163 -4 -22 -8 -51 -11 -65 -2 -14
-7 -52 -10 -85 -3 -33 -8 -67 -10 -75 -2 -8 -6 -42 -9 -75 -4 -33 -9 -73 -11
-89 -3 -15 -7 -47 -9 -71 -2 -24 -6 -47 -9 -51 -3 -5 -8 -31 -11 -59 -4 -27
-9 -57 -11 -65 -2 -8 -7 -29 -10 -47 -8 -52 -55 -264 -71 -328 -9 -33 -18 -69
-20 -80 -2 -11 -7 -31 -10 -45 -3 -14 -7 -34 -9 -45 -1 -11 -5 -27 -8 -35 -3
-8 -11 -42 -18 -75 -7 -33 -14 -64 -15 -70 -3 -15 -13 -66 -19 -100 -3 -16
-10 -52 -15 -80 -16 -85 -23 -125 -36 -210 -2 -16 -6 -41 -9 -55 -4 -25 -13
-81 -20 -130 -2 -14 -9 -56 -16 -95 -6 -38 -13 -86 -14 -105 -2 -19 -5 -46 -9
-60 -6 -26 -15 -85 -21 -130 -2 -14 -5 -38 -8 -55 -6 -29 -17 -113 -22 -165
-2 -14 -5 -43 -8 -65 -4 -22 -8 -65 -11 -95 -3 -30 -9 -89 -13 -130 -9 -94 -9
-762 0 -930 10 -192 24 -370 32 -420 2 -14 7 -49 10 -79 5 -49 38 -239 49
-286 11 -47 45 -213 51 -250 16 -93 -1 -225 -42 -335 -7 -18 -10 -29 -17 -55
-2 -11 -9 -31 -15 -45 -8 -22 -10 -22 -11 -5 -5 65 -20 86 -50 67 -23 -14 -25
-11 -34 48 -3 19 -7 42 -9 50 -3 8 -8 30 -12 48 -5 21 -13 32 -26 32 -15 0
-32 -14 -35 -30 0 -3 -5 -23 -12 -45 -12 -44 -20 -88 -21 -122 -1 -13 -6 -23
-12 -23 -5 0 -9 8 -8 18 7 69 -19 85 -41 25 -8 -21 -14 -40 -13 -43 0 -3 -16
-45 -36 -95 l-37 -90 -64 -21 c-123 -39 -118 -40 -132 8 -14 50 -17 297 -4
403 23 184 29 355 29 775 1 418 -5 720 -13 720 -3 0 -6 26 -6 58 -2 61 -11
205 -19 290 -3 28 -7 73 -9 100 -6 61 -25 224 -33 282 -3 25 -7 56 -9 70 -1
14 -5 35 -8 47 -2 12 -7 46 -10 75 -6 51 -11 86 -21 138 -3 14 -7 43 -11 65
-3 22 -12 78 -21 125 -8 47 -17 95 -19 108 -2 12 -6 33 -9 47 -3 14 -7 37 -10
53 -9 44 -25 125 -31 152 -3 14 -7 36 -10 50 -3 14 -16 70 -30 125 -23 96 -28
116 -39 160 -9 42 -44 164 -73 257 -16 53 -27 99 -24 102 3 4 0 6 -6 6 -6 0
-14 15 -17 33 -8 35 -103 285 -135 354 -11 24 -20 45 -20 47 0 6 -137 296
-152 321 -25 44 -58 114 -58 124 0 6 -4 11 -9 11 -5 0 -13 9 -16 21 -9 28 -79
150 -132 231 -47 72 -66 84 -106 69 -72 -28 -90 -121 -102 -536 -5 -185 -13
-370 -20 -480 -2 -38 -7 -113 -10 -165 -3 -52 -8 -117 -10 -145 -3 -27 -8 -90
-10 -140 -3 -49 -7 -110 -9 -135 -3 -25 -7 -85 -11 -135 -3 -49 -8 -119 -11
-153 -3 -35 -7 -98 -10 -140 -2 -43 -7 -129 -11 -192 -10 -161 -9 -801 1 -940
13 -175 13 -183 20 -243 3 -32 9 -83 12 -114 3 -32 8 -62 11 -66 3 -4 6 -34 8
-65 2 -31 6 -68 9 -82 4 -14 8 -43 11 -65 3 -21 10 -57 16 -80 6 -22 13 -51
15 -65 3 -14 7 -37 10 -52 3 -15 6 -31 6 -35 0 -5 4 -14 10 -20 6 -7 8 -13 4
-13 -3 0 0 -16 8 -35 8 -19 13 -35 11 -35 -7 0 85 -261 125 -355 5 -11 56
-117 114 -237 58 -119 117 -245 132 -280 40 -96 47 -113 49 -118 1 -3 5 -12 8
-20 14 -32 59 -178 73 -235 21 -84 22 -88 28 -126 3 -19 8 -43 10 -54 6 -31
18 -152 20 -220 2 -46 -2 -68 -18 -95 -65 -108 -111 -207 -133 -285 -24 -88
-50 -208 -59 -275 -3 -19 -7 -46 -9 -60 -19 -107 -25 -418 -11 -625 20 -314
27 -467 29 -670 2 -130 -1 -197 -9 -213 -7 -13 -10 -36 -7 -50 17 -78 -4 -481
-27 -542 -1 -3 -3 -9 -4 -15 -9 -58 -47 -152 -66 -165 -4 -3 -25 -27 -45 -55
-55 -72 -137 -152 -349 -336 -21 -19 -53 -48 -72 -66 -19 -17 -55 -49 -82 -70
-26 -21 -49 -40 -52 -43 -10 -11 -156 -126 -203 -160 -26 -19 -66 -48 -87 -65
-21 -16 -71 -52 -110 -80 -113 -80 -355 -257 -360 -264 -3 -4 -21 -18 -40 -31
-155 -109 -490 -429 -700 -670 -40 -47 -76 -87 -80 -90 -3 -3 -21 -25 -40 -50
-19 -25 -37 -47 -40 -50 -3 -3 -34 -43 -68 -90 -34 -47 -66 -89 -70 -95 -46
-63 -193 -319 -198 -345 0 -3 -11 -27 -23 -55 -23 -51 -71 -172 -75 -190 -1
-5 -10 -34 -19 -64 -9 -30 -17 -58 -17 -63 0 -4 1802 -8 4005 -8 2595 0 4005
3 4005 10 0 22 -190 411 -210 430 -3 3 -16 25 -29 50 -28 51 -95 159 -111 177
-5 7 -10 17 -10 23 0 5 -4 10 -9 10 -5 0 -12 8 -15 18 -4 10 -14 27 -24 38
-10 10 -28 36 -41 57 -13 21 -28 43 -35 50 -7 6 -27 35 -46 62 -18 28 -36 52
-40 55 -3 3 -30 37 -60 75 -30 39 -58 72 -62 73 -5 2 -8 10 -8 18 0 8 -4 14
-9 14 -4 0 -29 26 -54 58 -25 31 -62 75 -82 97 -19 22 -54 62 -78 88 -50 58
-85 95 -242 262 -66 70 -136 144 -155 164 -40 43 -141 157 -191 216 -19 22
-36 42 -39 45 -3 3 -25 30 -50 60 -25 30 -47 57 -50 60 -3 3 -41 50 -86 105
-87 108 -84 101 -70 215 4 30 8 89 10 131 1 41 6 81 10 87 4 7 4 12 -1 12 -4
0 -8 28 -9 63 -1 88 -16 235 -29 297 -4 14 -8 36 -11 50 -3 14 -11 46 -19 73
-8 26 -11 47 -8 47 3 0 1 6 -5 13 -5 6 -13 26 -16 43 -4 17 -20 74 -37 125
-29 90 -32 149 -8 149 6 0 8 4 5 9 -3 5 3 35 14 67 12 33 20 60 20 62 -1 1 2
19 6 40 9 47 12 70 13 105 1 17 7 27 16 27 8 0 15 5 15 10 0 6 -5 9 -12 8 -12
-3 -17 21 -33 155 -6 45 -5 47 20 47 14 0 25 3 25 8 0 4 -14 7 -32 7 -20 0
-32 5 -34 15 -4 27 -46 114 -80 168 -34 52 -41 72 -26 72 4 0 25 16 47 35 l40
35 -58 -33 -57 -34 -53 51 c-79 77 -247 186 -286 186 -6 0 -12 17 -12 38 -3
89 -12 140 -55 292 -20 69 -37 132 -39 140 -2 8 -8 26 -13 40 -5 14 -10 28
-11 32 -2 12 -11 39 -27 81 -8 20 -14 40 -15 45 -4 21 -89 222 -133 311 -134
275 -307 469 -508 569 -50 25 -49 21 -30 117 28 135 42 172 129 355 30 63 56
123 58 133 2 9 7 23 12 30 4 6 8 17 9 22 1 6 9 30 17 55 18 52 54 183 61 220
3 14 10 50 16 80 6 30 13 69 16 85 2 17 9 57 15 90 5 33 12 78 14 100 2 22 7
69 11 105 8 86 12 132 19 270 9 159 10 174 17 186 4 5 4 15 0 21 -4 7 -6 29
-4 50 8 78 9 1007 2 1033 -4 15 -4 33 0 41 5 7 6 18 2 24 -4 5 -7 24 -8 40 -6
145 -36 483 -59 660 -2 17 -6 53 -9 80 -3 28 -8 61 -10 75 -3 14 -7 41 -10 60
-2 19 -8 58 -12 85 -3 28 -8 59 -10 70 -2 11 -11 61 -19 110 -8 50 -17 100
-19 111 -2 12 -7 37 -10 55 -6 36 -11 59 -20 99 -3 14 -8 36 -11 50 -3 14 -9
45 -15 70 -6 25 -13 56 -16 70 -5 24 -25 99 -80 310 -14 52 -27 106 -29 120
-2 14 -4 26 -6 28 -1 1 -3 7 -4 12 -1 6 -3 11 -5 13 -1 1 -3 9 -5 17 -2 8 -8
35 -14 60 -7 25 -14 56 -17 70 -3 14 -14 57 -25 95 -81 286 -101 319 -175 283z"/>
<path d="M8288 4163 c7 -3 16 -2 19 1 4 3 -2 6 -13 5 -11 0 -14 -3 -6 -6z"/>
</g>
</svg>
